<svg xmlns="http://www.w3.org/2000/svg" viewBox="0 0 313.35 66.81"><defs><style>.cls-1,.cls-2,.cls-3,.cls-5,.cls-6{isolation:isolate;}.cls-2,.cls-3,.cls-5,.cls-6{font-size:41.66px;font-family:Arial-BoldMT, Arial;font-weight:700;}.cls-10,.cls-2,.cls-3,.cls-5,.cls-6{fill:#fbab1a;}.cls-2{letter-spacing:-0.07em;}.cls-4{letter-spacing:-0.02em;}.cls-5{letter-spacing:-0.11em;}.cls-6{letter-spacing:-0.04em;}.cls-7{font-size:12.93px;fill:#231f20;font-family:MyriadPro-Regular, Myriad Pro;}.cls-8{letter-spacing:-0.01em;}.cls-9{letter-spacing:-0.01em;}.cls-10{fill-rule:evenodd;}</style></defs><g id="Layer_2" data-name="Layer 2"><g id="Layer_1-2" data-name="Layer 1"><g class="cls-1"><text class="cls-2" transform="translate(62.14 38.91) scale(1.02 1)">V</text><text class="cls-3" transform="translate(87.42 38.91) scale(1.02 1)">ACAFU<tspan class="cls-4" x="145.77" y="0">L</tspan></text><text class="cls-5" transform="translate(262.71 38.91) scale(1.02 1)">L</text><text class="cls-6" transform="translate(284.84 38.91) scale(1.02 1)">Y</text></g><text class="cls-7" transform="translate(142.39 53.01) scale(1.02 1)">Unique pla<tspan class="cls-8" x="58.82" y="0">c</tspan><tspan x="64.53" y="0">es f</tspan><tspan class="cls-9" x="82.64" y="0">r</tspan><tspan x="86.74" y="0">om local host</tspan></text><path class="cls-10" d="M48.88,6.31a2.91,2.91,0,0,0-2.76-3H43.47A2.89,2.89,0,0,0,40.72,6c2.73,2.39,5.44,4.79,8.16,7.18V6.31Z"/><path class="cls-10" d="M55.48,22.74C47.36,15.61,39.31,8.49,31.16,1.37c-1.95-1.71-3.71-1.89-5.71-.15C17.26,8.39,9.15,15.55,1,22.74c-1.71,1.49-1,3.86,1.15,3.86H6.89v1.58a24.12,24.12,0,0,0,6.16,16.25A20.11,20.11,0,0,0,27.9,51.17a20.11,20.11,0,0,0,14.85-6.75,24.12,24.12,0,0,0,6.16-16.25V26.59h5.42c2.2,0,2.85-2.37,1.15-3.86ZM40.71,28.17A14.66,14.66,0,0,1,37,38.07a12,12,0,0,1-18.1,0,14.66,14.66,0,0,1-3.76-9.9V26.58H19.3v1.59a9.83,9.83,0,0,0,2.53,6.64,8,8,0,0,0,12.14,0,9.83,9.83,0,0,0,2.53-6.64V26.58h4.21v1.59Z"/></g></g></svg>